Coordinates
version=1
nRows=9
nColumns=24
inDegrees=yes

Units are S.I. units (second, meters, Newtons, ...)
Angles are in degrees.

endheader
time	pelvis_tilt	pelvis_list	pelvis_rotation	pelvis_tx	pelvis_ty	pelvis_tz	hip_flexion_r	hip_adduction_r	hip_rotation_r	knee_angle_r	ankle_angle_r	subtalar_angle_r	mtp_angle_r	hip_flexion_l	hip_adduction_l	hip_rotation_l	knee_angle_l	ankle_angle_l	subtalar_angle_l	mtp_angle_l	lumbar_extension	lumbar_bending	lumbar_rotation
      5.20000000	      7.83775385	      0.89098390	      1.57006070	     -0.73884032	      0.87974663	      0.26963057	    -33.79648717	      1.29743030	     -8.21371184	    -11.26635184	     13.58650317	     10.84284160	      0.00000000	     17.81654628	      5.67390089	      3.71228140	    -10.39736361	      6.02806054	     -7.35422441	      0.00000000	    -28.22546267	      1.56790815	      2.33431733
      5.21000000	      7.48962475	      1.31160345	      1.92483952	     -0.72011975	      0.87827687	      0.26762066	    -32.77477987	      0.57796320	     -9.48041930	    -14.16576689	     11.13801604	     11.58912799	      0.00000000	     19.31284384	      6.36995906	      2.56878241	    -14.15956317	      6.25622341	     -5.55817095	      0.00000000	    -27.71488810	      1.15035227	      2.19599501
      5.22000000	      7.42717979	      1.81652549	      2.17390518	     -0.70162548	      0.87729935	      0.26588124	    -31.85412368	     -0.29371831	    -10.40801986	    -17.28109509	      8.25630973	     11.81614325	      0.00000000	     20.43829617	      7.02485425	      1.43393994	    -17.80694383	      6.76072046	     -4.15926064	      0.00000000	    -27.61886745	      0.58143065	      2.06713256
      5.23000000	      7.43259740	      2.21209414	      2.34579912	     -0.68341370	      0.87653133	      0.26423084	    -30.72909151	     -1.13837206	    -10.94881894	    -20.68915761	      4.93450845	     11.69498885	      0.00000000	     21.36508731	      7.56241353	      0.78392817	    -21.25897104	      7.51999059	     -3.66068072	      0.00000000	    -27.64863740	      0.13354904	      1.96887257
      5.24000000	      7.67130779	      2.57725062	      2.40048468	     -0.66552516	      0.87616961	      0.26281639	    -29.59325000	     -2.01046171	    -11.14570318	    -24.34009619	      1.38727842	     11.20751007	      0.00000000	     21.87470121	      8.01553096	      0.21149285	    -24.47382962	      8.77745663	     -3.30980277	      0.00000000	    -27.99747493	     -0.29845935	      1.86745056
      5.25000000	      8.04548285	      2.88995283	      2.32919341	     -0.64794792	      0.87611488	      0.26158565	    -28.33386823	     -2.90463627	    -11.09393572	    -28.23714968	     -2.11101147	     10.58979562	      0.00000000	     21.98101061	      8.39551669	     -0.24230839	    -27.31267020	     10.40938468	     -3.12243437	      0.00000000	    -28.51717163	     -0.67683125	      1.74031148
      5.26000000	      8.47861681	      3.16754380	      2.11970529	     -0.63068031	      0.87633347	      0.26053632	    -26.89252112	     -3.83616141	    -10.83603385	    -32.32934273	     -5.25822885	      9.93177424	      0.00000000	     21.70414790	      8.71204541	     -0.68199481	    -29.66403038	     12.30750259	     -2.93475094	      0.00000000	    -29.09527282	     -1.02433222	      1.56351462
      5.27000000	      8.88849571	      3.44622545	      1.75481270	     -0.61370853	      0.87682986	      0.25970073	    -25.21521739	     -4.82219152	    -10.36275815	    -36.53750654	     -7.77595500	      9.28163965	      0.00000000	     21.08425551	      8.99010962	     -1.17996827	    -31.41994630	     14.33267018	     -2.68404423	      0.00000000	    -29.61590921	     -1.39751325	      1.30351074
      5.28000000	      9.21573935	      3.73831584	      1.23347884	     -0.59704044	      0.87763875	      0.25909156	    -23.27434622	     -5.84875335	     -9.68383552	    -40.76400015	     -9.42705928	      8.68728660	      0.00000000	     20.19012425	      9.23369781	     -1.78613115	    -32.55273944	     16.32510268	     -2.34933963	      0.00000000	    -30.00179925	     -1.81868560	      0.99048762
